<svg width="485" height="320" viewBox="0 0 485 320" fill="none" xmlns="http://www.w3.org/2000/svg">
<g id="sup-mask-5">
<g id="mask-5">
<g id="Group 117">
<path id="Rectangle 280" d="M176.479 8.34082H287.8L275.305 64.7471H163.219L176.479 8.34082Z" fill="#8F85F4"/>
<path id="Rectangle 281" d="M375.79 129.794H440.533L433.266 162.599H368.078L375.79 129.794Z" fill="#8F85F4"/>
<g id="elento_recorte">
<path fill-rule="evenodd" clip-rule="evenodd" d="M23 319.273L40.4622 236.653H127.402L116.566 286.433H174.953L167.911 319.273H23Z" fill="#2A4FDA"/>
<path fill-rule="evenodd" clip-rule="evenodd" d="M192.67 203.813H134.55L127.402 236.653H185.628L174.953 286.433H233.329L250.53 203.813H192.67Z" fill="#2A4FDA"/>
<path d="M127.402 236.653H40.4622L23 319.273H167.911L174.953 286.433M127.402 236.653L116.566 286.433H174.953M127.402 236.653L134.55 203.813H192.67H250.53L233.329 286.433H174.953M127.402 236.653H185.628L174.953 286.433" stroke="#2A4FDA" stroke-width="0.521261"/>
</g>
</g>
</g>
</g>
</svg>
